<svg width="350" height="435" viewBox="0 0 350 435" fill="none" xmlns="http://www.w3.org/2000/svg">
<path fill-rule="evenodd" clip-rule="evenodd" d="M120.064 39.6818C89.5288 -13.2273 13.1903 -13.2273 -17.3451 39.6818L-234.206 415.438C-268.151 474.256 -217.097 547.297 -149.777 538.506C-83.5606 529.861 -9.26892 522.477 51.3589 522.477C111.988 522.477 186.278 529.861 252.495 538.506C319.815 547.297 370.87 474.256 336.924 415.438L120.064 39.6818ZM178.124 394.878C155.186 437.754 109.984 466.923 57.9713 466.923C46.4402 466.923 35.2437 465.489 24.5496 462.79C26.8621 462.899 29.1879 462.955 31.5269 462.955C34.8232 462.955 38.0931 462.845 41.3338 462.629C44.6473 462.845 47.9912 462.955 51.3602 462.955C104.284 462.955 150.891 435.907 178.124 394.878ZM193.814 320.879C189.925 376.907 153.743 424.039 103.759 443.772C147.503 418.685 176.971 371.513 176.971 317.455C176.971 282.241 164.467 249.949 143.658 224.782C172.092 247.834 191.058 282.115 193.814 320.879ZM184.241 258.423C167.562 229.319 141.118 206.531 109.379 194.531C86.8685 180.235 60.1649 171.955 31.5269 171.955C25.4235 171.955 19.4074 172.33 13.5011 173.062C25.5584 169.754 38.2531 167.986 51.3602 167.986C111.729 167.986 163.347 205.459 184.241 258.423ZM203.09 320.872C203.306 317.556 203.416 314.211 203.416 310.841C203.416 226.831 135.339 158.727 51.3602 158.727C13.5605 158.727 -21.0169 172.525 -47.616 195.36C-87.5233 221.303 -113.917 266.295 -113.917 317.455C-113.917 379.707 -74.8366 432.828 -19.8798 453.605C2.62975 467.902 29.3347 476.182 57.9713 476.182C138.299 476.182 203.416 411.039 203.416 330.682C203.416 327.386 203.306 324.114 203.09 320.872ZM-91.9924 259.994C-100.123 277.454 -104.662 296.923 -104.662 317.455C-104.662 360.217 -84.9688 398.378 -54.1597 423.355C-57.7138 419.056 -61.026 414.549 -64.075 409.855C-86.9019 383.246 -100.695 348.655 -100.695 310.841C-100.695 293.009 -97.6277 275.893 -91.9924 259.994ZM-56.6441 404.297C-70.2974 383.068 -78.2175 357.8 -78.2175 330.682C-78.2175 255.438 -17.2433 194.441 57.9713 194.441C74.5851 194.441 90.5033 197.417 105.222 202.864C142.821 227.114 167.716 269.376 167.716 317.455C167.716 389.402 111.967 448.324 41.3259 453.348C2.24365 450.635 -32.507 432.188 -56.6441 404.297ZM-86.3664 348.715C-89.6732 336.653 -91.4397 323.953 -91.4397 310.841C-91.4397 267.679 -72.3059 228.989 -42.06 202.795C-20.8397 189.137 4.41872 181.214 31.5269 181.214C43.058 181.214 54.2546 182.647 64.9487 185.346C62.6362 185.237 60.3104 185.182 57.9713 185.182C-22.355 185.182 -87.4731 250.325 -87.4731 330.682C-87.4731 336.788 -87.0962 342.806 -86.3664 348.715Z" fill="#9B56E5" fill-opacity="0.3"/>
</svg>
