<svg width="546" height="500" viewBox="0 0 546 500" fill="none" xmlns="http://www.w3.org/2000/svg">
<g clip-path="url(#clip0_1_32)">
<path fill-rule="evenodd" clip-rule="evenodd" d="M275.773 119.396C216.129 106.193 164.583 162.5 182.99 220.749L313.717 634.43C334.18 699.184 422.529 710.846 461.501 655.255C499.836 600.576 544.555 540.793 585.493 496.073C626.432 451.353 682.041 401.542 733.13 358.538C785.07 314.818 765.669 227.84 699.364 213.163L275.773 119.396ZM576.971 316.411C593.108 362.282 584.101 415.319 548.98 453.684C541.194 462.189 532.576 469.479 523.365 475.545C525.006 473.913 526.618 472.235 528.197 470.51C530.423 468.078 532.55 465.592 534.579 463.056C536.976 460.758 539.314 458.366 541.589 455.881C577.325 416.844 588.846 364.204 576.971 316.411ZM532.984 254.872C571.684 295.573 582.017 354.086 562.822 404.279C573.855 355.073 558.959 301.485 519.085 264.983C493.111 241.205 460.85 228.624 428.235 226.979C464.438 221.571 502.531 230.73 532.984 254.872ZM480.452 219.76C447.723 212.41 413.058 216.529 382.776 231.836C357.031 238.787 332.892 252.893 313.555 274.016C309.434 278.518 305.648 283.209 302.2 288.06C307.901 276.933 315.17 266.376 324.02 256.708C364.783 212.18 427.278 199.409 480.452 219.76ZM539.243 248.025C536.942 245.627 534.549 243.287 532.063 241.012C470.097 184.285 373.895 188.513 317.19 250.456C291.667 278.337 278.496 313.158 277.379 348.197C269.567 395.15 284.932 444.999 322.667 479.543C368.585 521.578 434.156 528.621 486.59 502.115C512.334 495.165 536.473 481.058 555.81 459.936C610.05 400.686 605.969 308.669 546.698 254.409C544.266 252.183 541.78 250.055 539.243 248.025ZM295.088 424.572C302.477 442.358 313.773 458.853 328.917 472.716C360.458 501.591 401.903 512.833 441.13 506.973C435.559 506.692 429.998 506.092 424.477 505.171C389.436 504.041 354.609 490.858 326.717 465.325C313.564 453.284 303.01 439.464 295.088 424.572ZM425.395 495.937C400.518 491.674 376.532 480.454 356.529 462.142C301.029 411.335 297.209 325.173 347.997 269.694C359.215 257.44 372.159 247.708 386.115 240.53C429.39 229.171 477.373 239.345 512.835 271.81C565.904 320.391 571.721 401.298 527.728 456.795C499.337 483.79 462.266 496.967 425.395 495.937ZM364.328 480.329C353.198 474.624 342.638 467.352 332.966 458.498C301.13 429.353 285.512 389.116 286.614 349.119C290.869 324.244 302.08 300.264 320.384 280.268C328.17 271.763 336.788 264.473 346 258.407C344.358 260.039 342.747 261.717 341.167 263.442C286.928 322.691 291.008 414.709 350.28 468.969C354.783 473.092 359.477 476.878 364.328 480.329Z" fill="#9B56E5" fill-opacity="0.3"/>
<path d="M472.595 693.203C472.595 693.203 550.478 579.586 609.739 514.008C672.437 444.624 785.079 351.856 785.079 351.856" stroke="#9B56E5" stroke-opacity="0.3" stroke-linecap="round"/>
</g>
<defs>
<clipPath id="clip0_1_32">
<rect width="595" height="582" fill="white" transform="translate(0 361.874) rotate(-47.5276)"/>
</clipPath>
</defs>
</svg>
