<svg width="131" height="29" viewBox="0 0 131 29" fill="none" xmlns="http://www.w3.org/2000/svg">
<path fill-rule="evenodd" clip-rule="evenodd" d="M18.562 3.87428C16.2526 -0.125717 10.4791 -0.125717 8.16972 3.87428L1.08515 16.1451C-1.48214 20.5918 2.38634 26.1172 7.49813 25.6341C9.5438 25.4407 11.5729 25.3132 13.3659 25.3132C15.1588 25.3132 17.1879 25.4407 19.2336 25.6341C24.3454 26.1172 28.2139 20.5918 25.6466 16.1451L18.562 3.87428ZM12.8584 21.5846C16.3042 21.3307 19.021 18.4546 19.021 14.9439C19.021 12.6032 17.8132 10.5445 15.9868 9.35711C15.2737 9.09642 14.5037 8.95417 13.7003 8.95417C10.0228 8.95417 7.04149 11.9354 7.04149 15.613C7.04149 16.9328 7.42546 18.163 8.08779 19.1978C9.26613 20.552 10.9571 21.4483 12.8584 21.5846ZM6.37736 14.8818C6.71679 11.441 9.42604 8.69648 12.8505 8.30271C12.6893 8.29102 12.5264 8.28507 12.3621 8.28507C11.0422 8.28507 9.81197 8.66912 8.77708 9.33156C7.30358 10.6137 6.37215 12.5027 6.37215 14.6093C6.37215 14.7006 6.3739 14.7914 6.37736 14.8818ZM8.35682 8.76955C9.70271 7.61414 11.4526 6.91597 13.3655 6.91597C17.6144 6.91597 21.0588 10.3604 21.0588 14.6093C21.0588 14.7789 21.0534 14.9472 21.0425 15.1141C21.0536 15.279 21.0592 15.4454 21.0592 15.613C21.0592 19.6772 17.7645 22.9719 13.7003 22.9719C12.2514 22.9719 10.9002 22.5531 9.76128 21.83C6.98064 20.7792 5.00329 18.0925 5.00329 14.9439C5.00329 12.3569 6.33822 10.0817 8.35682 8.76955ZM13.095 7.62111C13.1847 7.6177 13.2749 7.61597 13.3655 7.61597C15.7526 7.61597 17.8604 8.81198 19.1222 10.6375C18.3511 9.79763 17.3875 9.13748 16.3012 8.72698C15.3567 8.12728 14.2662 7.7369 13.095 7.62111ZM20.3408 15.1149C20.2316 13.637 19.6398 12.2932 18.7226 11.2405C19.3573 12.3283 19.721 13.5937 19.721 14.9439C19.721 17.0896 18.8027 19.0207 17.3377 20.3658C19.033 19.1938 20.1853 17.2922 20.3408 15.1149ZM14.3394 22.2416C15.3581 22.1129 16.3148 21.785 17.169 21.2982C16.3302 21.8111 15.369 22.1436 14.3394 22.2416ZM6.66989 18.401C6.16301 17.5682 5.83375 16.6154 5.73473 15.5952C5.86386 16.6047 6.18866 17.5531 6.66989 18.401Z" fill="black"/>
<path d="M5 27.5C5 27.5 10.3051 26.5294 13.7429 26.5007C17.3802 26.4703 23 27.5 23 27.5" stroke="black" stroke-linecap="round"/>
<path d="M38.44 21.38C37.5067 21.38 36.6867 21.22 35.98 20.9C35.2867 20.58 34.7067 20.1533 34.24 19.62C33.7867 19.0733 33.44 18.4667 33.2 17.8C32.9733 17.1333 32.86 16.4533 32.86 15.76V15.38C32.86 14.66 32.9733 13.9667 33.2 13.3C33.44 12.62 33.7867 12.02 34.24 11.5C34.7067 10.9667 35.28 10.5467 35.96 10.24C36.64 9.92 37.4267 9.76 38.32 9.76C39.4933 9.76 40.4733 10.02 41.26 10.54C42.06 11.0467 42.66 11.72 43.06 12.56C43.46 13.3867 43.66 14.28 43.66 15.24V16.24H34.04V14.54H41.92L41.06 15.38C41.06 14.6867 40.96 14.0933 40.76 13.6C40.56 13.1067 40.2533 12.7267 39.84 12.46C39.44 12.1933 38.9333 12.06 38.32 12.06C37.7067 12.06 37.1867 12.2 36.76 12.48C36.3333 12.76 36.0067 13.1667 35.78 13.7C35.5667 14.22 35.46 14.8467 35.46 15.58C35.46 16.26 35.5667 16.8667 35.78 17.4C35.9933 17.92 36.32 18.3333 36.76 18.64C37.2 18.9333 37.76 19.08 38.44 19.08C39.12 19.08 39.6733 18.9467 40.1 18.68C40.5267 18.4 40.8 18.06 40.92 17.66H43.48C43.32 18.4067 43.0133 19.06 42.56 19.62C42.1067 20.18 41.5267 20.6133 40.82 20.92C40.1267 21.2267 39.3333 21.38 38.44 21.38ZM45.9823 21V10.14H48.1823V14.8H47.9823C47.9823 13.6933 48.129 12.7733 48.4223 12.04C48.7157 11.2933 49.149 10.7333 49.7223 10.36C50.309 9.98667 51.0357 9.8 51.9023 9.8H52.0223C53.3157 9.8 54.2957 10.22 54.9623 11.06C55.629 11.8867 55.9623 13.1267 55.9623 14.78V21H53.1823V14.54C53.1823 13.8733 52.989 13.3333 52.6023 12.92C52.229 12.5067 51.709 12.3 51.0423 12.3C50.3623 12.3 49.809 12.5133 49.3823 12.94C48.969 13.3533 48.7623 13.9133 48.7623 14.62V21H45.9823ZM63.6711 21.14C62.6711 21.14 61.8444 21.0133 61.1911 20.76C60.5511 20.4933 60.0711 20.0533 59.7511 19.44C59.4311 18.8133 59.2711 17.9733 59.2711 16.92L59.2911 7.08H61.8911L61.8711 17.1C61.8711 17.6333 62.0111 18.0467 62.2911 18.34C62.5844 18.62 62.9978 18.76 63.5311 18.76H65.2311V21.14H63.6711ZM57.5511 12.18V10.14H65.2311V12.18H57.5511ZM67.5644 21V10.14H69.7644V14.74H69.7044C69.7044 13.18 70.0377 12 70.7044 11.2C71.371 10.4 72.351 10 73.6444 10H74.0444V12.42H73.2844C72.351 12.42 71.6244 12.6733 71.1044 13.18C70.5977 13.6733 70.3444 14.3933 70.3444 15.34V21H67.5644ZM75.9163 25.28V22.9H77.9563C78.3429 22.9 78.6629 22.8467 78.9163 22.74C79.1829 22.6467 79.4029 22.4867 79.5763 22.26C79.7496 22.0467 79.8829 21.7467 79.9763 21.36L82.8963 10.14H85.5563L82.3363 21.96C82.1229 22.7733 81.8229 23.42 81.4363 23.9C81.0496 24.3933 80.5496 24.7467 79.9362 24.96C79.3363 25.1733 78.5896 25.28 77.6963 25.28H75.9163ZM79.2963 20.76V18.56H81.6163V20.76H79.2963ZM78.3563 20.76L74.8363 10.14H77.6363L80.9763 20.76H78.3563ZM87.4667 21V10.14H89.6667V14.8H89.4667C89.4667 13.6933 89.6134 12.7733 89.9067 12.04C90.2001 11.2933 90.6334 10.7333 91.2067 10.36C91.7934 9.98667 92.5201 9.8 93.3867 9.8H93.5067C94.8001 9.8 95.7801 10.22 96.4467 11.06C97.1134 11.8867 97.4467 13.1267 97.4467 14.78V21H94.6667V14.54C94.6667 13.8733 94.4734 13.3333 94.0867 12.92C93.7134 12.5067 93.1934 12.3 92.5267 12.3C91.8467 12.3 91.2934 12.5133 90.8667 12.94C90.4534 13.3533 90.2467 13.9133 90.2467 14.62V21H87.4667ZM105.295 21.38C104.362 21.38 103.542 21.22 102.835 20.9C102.142 20.58 101.562 20.1533 101.095 19.62C100.642 19.0733 100.295 18.4667 100.055 17.8C99.8288 17.1333 99.7155 16.4533 99.7155 15.76V15.38C99.7155 14.66 99.8288 13.9667 100.055 13.3C100.295 12.62 100.642 12.02 101.095 11.5C101.562 10.9667 102.135 10.5467 102.815 10.24C103.495 9.92 104.282 9.76 105.175 9.76C106.349 9.76 107.329 10.02 108.115 10.54C108.915 11.0467 109.515 11.72 109.915 12.56C110.315 13.3867 110.515 14.28 110.515 15.24V16.24H100.895V14.54H108.775L107.915 15.38C107.915 14.6867 107.815 14.0933 107.615 13.6C107.415 13.1067 107.109 12.7267 106.695 12.46C106.295 12.1933 105.789 12.06 105.175 12.06C104.562 12.06 104.042 12.2 103.615 12.48C103.189 12.76 102.862 13.1667 102.635 13.7C102.422 14.22 102.315 14.8467 102.315 15.58C102.315 16.26 102.422 16.8667 102.635 17.4C102.849 17.92 103.175 18.3333 103.615 18.64C104.055 18.9333 104.615 19.08 105.295 19.08C105.975 19.08 106.529 18.9467 106.955 18.68C107.382 18.4 107.655 18.06 107.775 17.66H110.335C110.175 18.4067 109.869 19.06 109.415 19.62C108.962 20.18 108.382 20.6133 107.675 20.92C106.982 21.2267 106.189 21.38 105.295 21.38ZM116.778 21.34C115.284 21.34 114.111 21.0267 113.258 20.4C112.418 19.76 111.978 18.88 111.938 17.76H114.438C114.478 18.1333 114.684 18.4733 115.058 18.78C115.431 19.0867 116.018 19.24 116.818 19.24C117.484 19.24 118.011 19.12 118.398 18.88C118.798 18.64 118.998 18.3133 118.998 17.9C118.998 17.54 118.844 17.2533 118.538 17.04C118.244 16.8267 117.738 16.6867 117.018 16.62L116.058 16.52C114.844 16.3867 113.911 16.04 113.258 15.48C112.604 14.92 112.278 14.1733 112.278 13.24C112.278 12.4933 112.464 11.8667 112.838 11.36C113.211 10.8533 113.724 10.4733 114.378 10.22C115.044 9.95333 115.804 9.82 116.658 9.82C117.991 9.82 119.071 10.1133 119.898 10.7C120.724 11.2867 121.158 12.1467 121.198 13.28H118.698C118.671 12.9067 118.484 12.5867 118.138 12.32C117.791 12.0533 117.291 11.92 116.638 11.92C116.051 11.92 115.598 12.0333 115.278 12.26C114.958 12.4867 114.798 12.78 114.798 13.14C114.798 13.4867 114.924 13.7533 115.178 13.94C115.444 14.1267 115.871 14.2533 116.458 14.32L117.418 14.42C118.698 14.5533 119.698 14.9067 120.418 15.48C121.151 16.0533 121.518 16.8267 121.518 17.8C121.518 18.52 121.318 19.1467 120.918 19.68C120.531 20.2 119.984 20.6067 119.278 20.9C118.571 21.1933 117.738 21.34 116.778 21.34ZM128.534 21.14C127.534 21.14 126.708 21.0133 126.054 20.76C125.414 20.4933 124.934 20.0533 124.614 19.44C124.294 18.8133 124.134 17.9733 124.134 16.92L124.154 7.08H126.754L126.734 17.1C126.734 17.6333 126.874 18.0467 127.154 18.34C127.448 18.62 127.861 18.76 128.394 18.76H130.094V21.14H128.534ZM122.414 12.18V10.14H130.094V12.18H122.414Z" fill="black"/>
</svg>
