<svg width="28" height="28" viewBox="0 0 28 28" fill="none" xmlns="http://www.w3.org/2000/svg">
<path fill-rule="evenodd" clip-rule="evenodd" d="M18.562 3.37428C16.2526 -0.625717 10.4791 -0.625716 8.16972 3.37428L1.08515 15.6451C-1.48214 20.0918 2.38634 25.6172 7.49813 25.1341C9.5438 24.9407 11.5729 24.8132 13.3659 24.8132C15.1588 24.8132 17.1879 24.9407 19.2336 25.1341C24.3454 25.6172 28.2139 20.0918 25.6466 15.6451L18.562 3.37428ZM12.8584 21.0846C16.3042 20.8307 19.021 17.9546 19.021 14.4439C19.021 12.1032 17.8132 10.0445 15.9868 8.85711C15.2737 8.59642 14.5037 8.45417 13.7003 8.45417C10.0228 8.45417 7.04149 11.4354 7.04149 15.113C7.04149 16.4328 7.42546 17.663 8.08779 18.6978C9.26613 20.052 10.9571 20.9483 12.8584 21.0846ZM6.37736 14.3818C6.71679 10.941 9.42604 8.19648 12.8505 7.80271C12.6893 7.79102 12.5264 7.78507 12.3621 7.78507C11.0422 7.78507 9.81197 8.16912 8.77708 8.83156C7.30358 10.1137 6.37215 12.0027 6.37215 14.1093C6.37215 14.2006 6.3739 14.2914 6.37736 14.3818ZM8.35682 8.26955C9.70271 7.11414 11.4526 6.41597 13.3655 6.41597C17.6144 6.41597 21.0588 9.8604 21.0588 14.1093C21.0588 14.2789 21.0534 14.4472 21.0425 14.6141C21.0536 14.779 21.0592 14.9454 21.0592 15.113C21.0592 19.1772 17.7645 22.4719 13.7003 22.4719C12.2514 22.4719 10.9002 22.0531 9.76128 21.33C6.98064 20.2792 5.00329 17.5925 5.00329 14.4439C5.00329 11.8569 6.33822 9.58171 8.35682 8.26955ZM13.095 7.12111C13.1847 7.1177 13.2749 7.11597 13.3655 7.11597C15.7526 7.11597 17.8604 8.31198 19.1222 10.1375C18.3511 9.29763 17.3875 8.63748 16.3012 8.22698C15.3567 7.62728 14.2662 7.2369 13.095 7.12111ZM20.3408 14.6149C20.2316 13.137 19.6398 11.7932 18.7226 10.7405C19.3573 11.8283 19.721 13.0937 19.721 14.4439C19.721 16.5896 18.8027 18.5207 17.3377 19.8658C19.033 18.6938 20.1853 16.7922 20.3408 14.6149ZM14.3394 21.7416C15.3581 21.6129 16.3148 21.285 17.169 20.7982C16.3302 21.3111 15.369 21.6436 14.3394 21.7416ZM6.66989 17.901C6.16301 17.0682 5.83375 16.1154 5.73473 15.0952C5.86386 16.1047 6.18866 17.0531 6.66989 17.901Z" fill="black"/>
<path d="M5 27C5 27 10.3051 26.0294 13.7429 26.0007C17.3802 25.9703 23 27 23 27" stroke="black" stroke-linecap="round"/>
</svg>
